<?xml version="1.0" encoding="UTF-8"?>
<svg xmlns="http://www.w3.org/2000/svg" xmlns:xlink="http://www.w3.org/1999/xlink" width="854" height="480" viewBox="0 0 854 480">
<defs>
<g>
<g id="glyph-0-0">
<path d="M 12.472656 -5.925781 C 12.472656 -4.335938 11.964844 -2.902344 10.945312 -1.628906 C 9.925781 -0.351562 8.597656 0.285156 6.964844 0.285156 C 5.4375 0.285156 4.046875 -0.429688 2.792969 -1.863281 C 1.539062 -3.292969 0.910156 -5.199219 0.910156 -7.578125 C 0.910156 -10.640625 2.125 -13.273438 4.558594 -15.46875 C 6.726562 -17.308594 9.167969 -18.230469 11.875 -18.230469 L 11.941406 -17.800781 C 10.855469 -17.601562 9.917969 -17.328125 9.132812 -16.984375 C 8.347656 -16.640625 7.648438 -16.164062 7.03125 -15.546875 C 6.398438 -14.921875 5.804688 -14.128906 5.246094 -13.164062 C 4.691406 -12.199219 4.308594 -11.246094 4.101562 -10.300781 C 4.640625 -10.628906 5.105469 -10.871094 5.496094 -11.027344 C 6.191406 -11.304688 6.886719 -11.445312 7.589844 -11.445312 C 8.972656 -11.445312 10.128906 -10.96875 11.066406 -10.011719 C 12.003906 -9.058594 12.472656 -7.695312 12.472656 -5.925781 Z M 10.089844 -4.921875 C 10.089844 -6.078125 9.910156 -7.101562 9.542969 -7.996094 C 8.9375 -9.488281 7.902344 -10.234375 6.445312 -10.234375 C 5.101562 -10.234375 4.207031 -9.835938 3.761719 -9.035156 C 3.503906 -8.566406 3.371094 -7.785156 3.371094 -6.691406 C 3.371094 -5.277344 3.675781 -3.894531 4.277344 -2.539062 C 4.878906 -1.183594 5.832031 -0.507812 7.136719 -0.507812 C 8.167969 -0.507812 8.917969 -0.949219 9.386719 -1.828125 C 9.855469 -2.710938 10.089844 -3.742188 10.089844 -4.921875 Z "/>
</g>
<g id="glyph-0-1">
<path d="M 6.535156 -0.273438 C 6.535156 0.601562 6.21875 1.417969 5.585938 2.175781 C 4.953125 2.929688 4.269531 3.472656 3.542969 3.800781 L 3.292969 3.28125 C 4.128906 2.8125 4.703125 2.304688 5.019531 1.757812 C 5.335938 1.210938 5.496094 0.753906 5.496094 0.390625 C 5.496094 0.269531 5.457031 0.191406 5.378906 0.15625 C 5.300781 0.121094 5.21875 0.105469 5.128906 0.105469 L 4.257812 0.195312 C 3.894531 0.195312 3.558594 0.0742188 3.253906 -0.164062 C 2.949219 -0.402344 2.800781 -0.746094 2.800781 -1.199219 C 2.800781 -1.546875 2.925781 -1.882812 3.175781 -2.214844 C 3.429688 -2.542969 3.839844 -2.707031 4.414062 -2.707031 C 4.960938 -2.707031 5.453125 -2.492188 5.886719 -2.0625 C 6.320312 -1.632812 6.535156 -1.039062 6.535156 -0.273438 Z "/>
</g>
<g id="glyph-0-2">
<path d="M 0.792969 -0.300781 C 3.972656 -3.597656 6.128906 -6.019531 7.265625 -7.566406 C 8.402344 -9.109375 8.972656 -10.617188 8.972656 -12.082031 C 8.972656 -13.367188 8.625 -14.347656 7.929688 -15.019531 C 7.234375 -15.691406 6.40625 -16.027344 5.441406 -16.027344 C 4.253906 -16.027344 3.289062 -15.59375 2.550781 -14.726562 C 2.144531 -14.25 1.753906 -13.515625 1.378906 -12.527344 L 0.820312 -12.644531 C 1.253906 -14.640625 1.988281 -16.027344 3.027344 -16.804688 C 4.066406 -17.582031 5.179688 -17.96875 6.367188 -17.96875 C 7.835938 -17.96875 9.019531 -17.507812 9.929688 -16.582031 C 10.835938 -15.65625 11.289062 -14.527344 11.289062 -13.191406 C 11.289062 -11.765625 10.796875 -10.394531 9.816406 -9.074219 C 8.835938 -7.753906 6.707031 -5.40625 3.425781 -2.03125 L 9.402344 -2.03125 C 10.234375 -2.03125 10.820312 -2.132812 11.160156 -2.332031 C 11.496094 -2.53125 11.878906 -3.015625 12.304688 -3.789062 L 12.644531 -3.632812 L 11.199219 0 L 0.792969 0 Z "/>
</g>
<g id="glyph-0-3">
<path d="M 7.890625 -17.890625 C 7.925781 -17.847656 7.945312 -17.816406 7.949219 -17.792969 C 7.953125 -17.769531 7.957031 -17.722656 7.957031 -17.644531 L 7.957031 -1.964844 C 7.957031 -1.296875 8.132812 -0.871094 8.488281 -0.691406 C 8.84375 -0.507812 9.507812 -0.398438 10.480469 -0.363281 L 10.480469 0 L 3.136719 0 L 3.136719 -0.390625 C 4.1875 -0.441406 4.875 -0.585938 5.195312 -0.820312 C 5.515625 -1.054688 5.675781 -1.5625 5.675781 -2.34375 L 5.675781 -14.402344 C 5.675781 -14.816406 5.625 -15.132812 5.519531 -15.351562 C 5.417969 -15.570312 5.191406 -15.675781 4.84375 -15.675781 C 4.617188 -15.675781 4.324219 -15.613281 3.964844 -15.488281 C 3.605469 -15.363281 3.269531 -15.230469 2.957031 -15.089844 L 2.957031 -15.457031 L 7.734375 -17.890625 Z "/>
</g>
<g id="glyph-0-4">
<path d="M 1.992188 -2.382812 C 2.488281 -2.382812 3.136719 -2.101562 3.9375 -1.542969 C 4.742188 -0.984375 5.359375 -0.703125 5.792969 -0.703125 C 6.792969 -0.703125 7.664062 -1.144531 8.410156 -2.023438 C 9.15625 -2.90625 9.53125 -3.988281 9.53125 -5.273438 C 9.53125 -7.523438 8.332031 -9.140625 5.9375 -10.128906 C 4.609375 -10.675781 3.371094 -10.949219 2.226562 -10.949219 C 2.035156 -10.949219 1.917969 -10.957031 1.867188 -10.96875 C 1.820312 -10.984375 1.761719 -11.027344 1.691406 -11.105469 C 1.710938 -11.175781 1.726562 -11.234375 1.738281 -11.28125 C 1.75 -11.328125 1.765625 -11.375 1.785156 -11.417969 L 4.621094 -17.644531 L 10.207031 -17.644531 C 10.484375 -17.644531 10.699219 -17.691406 10.851562 -17.785156 C 11.003906 -17.882812 11.203125 -18.058594 11.445312 -18.320312 L 11.652344 -18.136719 L 10.636719 -15.730469 C 10.601562 -15.652344 10.507812 -15.601562 10.351562 -15.578125 C 10.195312 -15.558594 10.027344 -15.546875 9.84375 -15.546875 L 4.804688 -15.546875 L 3.699219 -13.269531 C 5.121094 -13.027344 6.164062 -12.796875 6.824219 -12.578125 C 7.910156 -12.214844 8.816406 -11.675781 9.542969 -10.964844 C 10.167969 -10.347656 10.640625 -9.65625 10.964844 -8.886719 C 11.285156 -8.117188 11.445312 -7.304688 11.445312 -6.445312 C 11.445312 -4.527344 10.761719 -2.925781 9.394531 -1.640625 C 8.027344 -0.355469 6.296875 0.285156 4.207031 0.285156 C 3.355469 0.285156 2.667969 0.203125 2.148438 0.0390625 C 1.28125 -0.230469 0.847656 -0.710938 0.847656 -1.40625 C 0.847656 -1.667969 0.941406 -1.894531 1.125 -2.089844 C 1.3125 -2.285156 1.601562 -2.382812 1.992188 -2.382812 Z "/>
</g>
</g>
</defs>
<g fill="rgb(92.156863%, 92.156863%, 92.156863%)" fill-opacity="1">
<use xlink:href="#glyph-0-0" x="30" y="40"/>
<use xlink:href="#glyph-0-0" x="43" y="40"/>
<use xlink:href="#glyph-0-1" x="56" y="40"/>
<use xlink:href="#glyph-0-2" x="63" y="40"/>
<use xlink:href="#glyph-0-3" x="76" y="40"/>
<use xlink:href="#glyph-0-4" x="89" y="40"/>
</g>
</svg>
