<?xml version="1.0" encoding="UTF-8"?>
<svg xmlns="http://www.w3.org/2000/svg" xmlns:xlink="http://www.w3.org/1999/xlink" width="854" height="480" viewBox="0 0 854 480">
<defs>
<g>
<g id="glyph-0-0">
<path d="M 0.792969 -0.300781 C 3.972656 -3.597656 6.128906 -6.019531 7.265625 -7.566406 C 8.402344 -9.109375 8.972656 -10.617188 8.972656 -12.082031 C 8.972656 -13.367188 8.625 -14.347656 7.929688 -15.019531 C 7.234375 -15.691406 6.40625 -16.027344 5.441406 -16.027344 C 4.253906 -16.027344 3.289062 -15.59375 2.550781 -14.726562 C 2.144531 -14.25 1.753906 -13.515625 1.378906 -12.527344 L 0.820312 -12.644531 C 1.253906 -14.640625 1.988281 -16.027344 3.027344 -16.804688 C 4.066406 -17.582031 5.179688 -17.96875 6.367188 -17.96875 C 7.835938 -17.96875 9.019531 -17.507812 9.929688 -16.582031 C 10.835938 -15.65625 11.289062 -14.527344 11.289062 -13.191406 C 11.289062 -11.765625 10.796875 -10.394531 9.816406 -9.074219 C 8.835938 -7.753906 6.707031 -5.40625 3.425781 -2.03125 L 9.402344 -2.03125 C 10.234375 -2.03125 10.820312 -2.132812 11.160156 -2.332031 C 11.496094 -2.53125 11.878906 -3.015625 12.304688 -3.789062 L 12.644531 -3.632812 L 11.199219 0 L 0.792969 0 Z "/>
</g>
</g>
</defs>
<g fill="rgb(92.156863%, 92.156863%, 92.156863%)" fill-opacity="1">
<use xlink:href="#glyph-0-0" x="30" y="40"/>
</g>
</svg>
