<?xml version="1.0" encoding="UTF-8"?>
<svg xmlns="http://www.w3.org/2000/svg" xmlns:xlink="http://www.w3.org/1999/xlink" width="854" height="480" viewBox="0 0 854 480">
<defs>
<g>
<g id="glyph-0-0">
<path d="M 7.890625 -17.890625 C 7.925781 -17.847656 7.945312 -17.816406 7.949219 -17.792969 C 7.953125 -17.769531 7.957031 -17.722656 7.957031 -17.644531 L 7.957031 -1.964844 C 7.957031 -1.296875 8.132812 -0.871094 8.488281 -0.691406 C 8.84375 -0.507812 9.507812 -0.398438 10.480469 -0.363281 L 10.480469 0 L 3.136719 0 L 3.136719 -0.390625 C 4.1875 -0.441406 4.875 -0.585938 5.195312 -0.820312 C 5.515625 -1.054688 5.675781 -1.5625 5.675781 -2.34375 L 5.675781 -14.402344 C 5.675781 -14.816406 5.625 -15.132812 5.519531 -15.351562 C 5.417969 -15.570312 5.191406 -15.675781 4.84375 -15.675781 C 4.617188 -15.675781 4.324219 -15.613281 3.964844 -15.488281 C 3.605469 -15.363281 3.269531 -15.230469 2.957031 -15.089844 L 2.957031 -15.457031 L 7.734375 -17.890625 Z "/>
</g>
<g id="glyph-0-1">
<path d="M 12.472656 -5.925781 C 12.472656 -4.335938 11.964844 -2.902344 10.945312 -1.628906 C 9.925781 -0.351562 8.597656 0.285156 6.964844 0.285156 C 5.4375 0.285156 4.046875 -0.429688 2.792969 -1.863281 C 1.539062 -3.292969 0.910156 -5.199219 0.910156 -7.578125 C 0.910156 -10.640625 2.125 -13.273438 4.558594 -15.46875 C 6.726562 -17.308594 9.167969 -18.230469 11.875 -18.230469 L 11.941406 -17.800781 C 10.855469 -17.601562 9.917969 -17.328125 9.132812 -16.984375 C 8.347656 -16.640625 7.648438 -16.164062 7.03125 -15.546875 C 6.398438 -14.921875 5.804688 -14.128906 5.246094 -13.164062 C 4.691406 -12.199219 4.308594 -11.246094 4.101562 -10.300781 C 4.640625 -10.628906 5.105469 -10.871094 5.496094 -11.027344 C 6.191406 -11.304688 6.886719 -11.445312 7.589844 -11.445312 C 8.972656 -11.445312 10.128906 -10.96875 11.066406 -10.011719 C 12.003906 -9.058594 12.472656 -7.695312 12.472656 -5.925781 Z M 10.089844 -4.921875 C 10.089844 -6.078125 9.910156 -7.101562 9.542969 -7.996094 C 8.9375 -9.488281 7.902344 -10.234375 6.445312 -10.234375 C 5.101562 -10.234375 4.207031 -9.835938 3.761719 -9.035156 C 3.503906 -8.566406 3.371094 -7.785156 3.371094 -6.691406 C 3.371094 -5.277344 3.675781 -3.894531 4.277344 -2.539062 C 4.878906 -1.183594 5.832031 -0.507812 7.136719 -0.507812 C 8.167969 -0.507812 8.917969 -0.949219 9.386719 -1.828125 C 9.855469 -2.710938 10.089844 -3.742188 10.089844 -4.921875 Z "/>
</g>
<g id="glyph-0-2">
<path d="M 6.535156 -0.273438 C 6.535156 0.601562 6.21875 1.417969 5.585938 2.175781 C 4.953125 2.929688 4.269531 3.472656 3.542969 3.800781 L 3.292969 3.28125 C 4.128906 2.8125 4.703125 2.304688 5.019531 1.757812 C 5.335938 1.210938 5.496094 0.753906 5.496094 0.390625 C 5.496094 0.269531 5.457031 0.191406 5.378906 0.15625 C 5.300781 0.121094 5.21875 0.105469 5.128906 0.105469 L 4.257812 0.195312 C 3.894531 0.195312 3.558594 0.0742188 3.253906 -0.164062 C 2.949219 -0.402344 2.800781 -0.746094 2.800781 -1.199219 C 2.800781 -1.546875 2.925781 -1.882812 3.175781 -2.214844 C 3.429688 -2.542969 3.839844 -2.707031 4.414062 -2.707031 C 4.960938 -2.707031 5.453125 -2.492188 5.886719 -2.0625 C 6.320312 -1.632812 6.535156 -1.039062 6.535156 -0.273438 Z "/>
</g>
<g id="glyph-0-3">
<path d="M 6.378906 -0.480469 C 7.65625 -0.480469 8.53125 -1.179688 9.011719 -2.578125 C 9.488281 -3.976562 9.726562 -6 9.726562 -8.644531 C 9.726562 -10.753906 9.582031 -12.4375 9.296875 -13.699219 C 8.757812 -16.042969 7.75 -17.214844 6.277344 -17.214844 C 4.800781 -17.214844 3.789062 -16.007812 3.242188 -13.59375 C 2.957031 -12.308594 2.8125 -10.617188 2.8125 -8.515625 C 2.8125 -6.546875 2.960938 -4.96875 3.253906 -3.789062 C 3.808594 -1.585938 4.851562 -0.480469 6.378906 -0.480469 Z M 6.339844 -17.917969 C 8.335938 -17.917969 9.886719 -16.871094 10.988281 -14.777344 C 11.867188 -13.085938 12.304688 -11.140625 12.304688 -8.945312 C 12.304688 -7.21875 12.035156 -5.589844 11.496094 -4.0625 C 10.480469 -1.1875 8.722656 0.246094 6.222656 0.246094 C 4.511719 0.246094 3.109375 -0.53125 2.003906 -2.082031 C 0.824219 -3.742188 0.234375 -5.992188 0.234375 -8.839844 C 0.234375 -11.082031 0.628906 -13.007812 1.417969 -14.621094 C 2.488281 -16.816406 4.128906 -17.917969 6.339844 -17.917969 Z "/>
</g>
<g id="glyph-0-4">
<path d="M 7.773438 -15.207031 L 1.378906 -6.171875 L 7.773438 -6.171875 Z M 8.632812 -17.890625 L 9.871094 -17.890625 L 9.871094 -6.171875 L 12.589844 -6.171875 L 12.589844 -4.441406 L 9.871094 -4.441406 L 9.871094 0 L 7.800781 0 L 7.800781 -4.441406 L 0.300781 -4.441406 L 0.300781 -6.171875 Z "/>
</g>
</g>
</defs>
<g fill="rgb(92.156863%, 92.156863%, 92.156863%)" fill-opacity="1">
<use xlink:href="#glyph-0-0" x="30" y="40"/>
<use xlink:href="#glyph-0-1" x="43" y="40"/>
<use xlink:href="#glyph-0-2" x="56" y="40"/>
<use xlink:href="#glyph-0-3" x="63" y="40"/>
<use xlink:href="#glyph-0-4" x="76" y="40"/>
<use xlink:href="#glyph-0-0" x="89" y="40"/>
</g>
</svg>
